{
	"asset":{
		"generator":"Khronos glTF Blender I/O v3.6.27",
		"version":"2.0"
	},
	"scene":0,
	"scenes":[
		{
			"name":"Scene",
			"nodes":[
				0
			]
		}
	],
	"nodes":[
		{
			"mesh":0,
			"name":"bodyPart03"
		}
	],
	"materials":[
		{
			"doubleSided":true,
			"name":"Material.002",
			"pbrMetallicRoughness":{
				"baseColorTexture":{
					"index":0
				},
				"metallicFactor":0,
				"roughnessFactor":0.5
			}
		}
	],
	"meshes":[
		{
			"name":"all_low02.016",
			"primitives":[
				{
					"attributes":{
						"COLOR_0":0,
						"POSITION":1,
						"NORMAL":2,
						"TEXCOORD_0":3
					},
					"indices":4,
					"material":0
				}
			]
		}
	],
	"textures":[
		{
			"sampler":0,
			"source":0
		}
	],
	"images":[
		{
			"bufferView":5,
			"mimeType":"image/png",
			"name":"Paint_Base Color"
		}
	],
	"accessors":[
		{
			"bufferView":0,
			"componentType":5126,
			"count":11649,
			"type":"VEC4"
		},
		{
			"bufferView":1,
			"componentType":5126,
			"count":11649,
			"max":[
				0.2940976023674011,
				0.45057785511016846,
				0.9373955726623535
			],
			"min":[
				-0.28252753615379333,
				-0.37574559450149536,
				0.0017465054988861084
			],
			"type":"VEC3"
		},
		{
			"bufferView":2,
			"componentType":5126,
			"count":11649,
			"type":"VEC3"
		},
		{
			"bufferView":3,
			"componentType":5126,
			"count":11649,
			"type":"VEC2"
		},
		{
			"bufferView":4,
			"componentType":5123,
			"count":60195,
			"type":"SCALAR"
		}
	],
	"bufferViews":[
		{
			"buffer":0,
			"byteLength":186384,
			"byteOffset":0,
			"target":34962
		},
		{
			"buffer":0,
			"byteLength":139788,
			"byteOffset":186384,
			"target":34962
		},
		{
			"buffer":0,
			"byteLength":139788,
			"byteOffset":326172,
			"target":34962
		},
		{
			"buffer":0,
			"byteLength":93192,
			"byteOffset":465960,
			"target":34962
		},
		{
			"buffer":0,
			"byteLength":120390,
			"byteOffset":559152,
			"target":34963
		},
		{
			"buffer":0,
			"byteLength":769175,
			"byteOffset":679544
		}
	],
	"samplers":[
		{
			"magFilter":9729,
			"minFilter":9987
		}
	],
	"buffers":[
		{
			"byteLength":1448720,
			"uri":"data:application/octet-stream;base64,"
		}
	]
}
