{
	"asset":{
		"generator":"Khronos glTF Blender I/O v3.6.27",
		"version":"2.0"
	},
	"scene":0,
	"scenes":[
		{
			"name":"Scene",
			"nodes":[
				0
			]
		}
	],
	"nodes":[
		{
			"mesh":0,
			"name":"bodyPart03.5"
		}
	],
	"materials":[
		{
			"doubleSided":true,
			"name":"Material.002",
			"pbrMetallicRoughness":{
				"baseColorTexture":{
					"index":0
				},
				"metallicFactor":0,
				"roughnessFactor":0.5
			}
		}
	],
	"meshes":[
		{
			"name":"all_low02.017",
			"primitives":[
				{
					"attributes":{
						"COLOR_0":0,
						"POSITION":1,
						"NORMAL":2,
						"TEXCOORD_0":3
					},
					"indices":4,
					"material":0
				}
			]
		}
	],
	"textures":[
		{
			"sampler":0,
			"source":0
		}
	],
	"images":[
		{
			"bufferView":5,
			"mimeType":"image/png",
			"name":"Paint_Base Color"
		}
	],
	"accessors":[
		{
			"bufferView":0,
			"componentType":5126,
			"count":32009,
			"type":"VEC4"
		},
		{
			"bufferView":1,
			"componentType":5126,
			"count":32009,
			"max":[
				0.9832760095596313,
				0.29219505190849304,
				1.649767279624939
			],
			"min":[
				-0.9717302322387695,
				-1.576322317123413,
				0.003334522247314453
			],
			"type":"VEC3"
		},
		{
			"bufferView":2,
			"componentType":5126,
			"count":32009,
			"type":"VEC3"
		},
		{
			"bufferView":3,
			"componentType":5126,
			"count":32009,
			"type":"VEC2"
		},
		{
			"bufferView":4,
			"componentType":5123,
			"count":166224,
			"type":"SCALAR"
		}
	],
	"bufferViews":[
		{
			"buffer":0,
			"byteLength":512144,
			"byteOffset":0,
			"target":34962
		},
		{
			"buffer":0,
			"byteLength":384108,
			"byteOffset":512144,
			"target":34962
		},
		{
			"buffer":0,
			"byteLength":384108,
			"byteOffset":896252,
			"target":34962
		},
		{
			"buffer":0,
			"byteLength":256072,
			"byteOffset":1280360,
			"target":34962
		},
		{
			"buffer":0,
			"byteLength":332448,
			"byteOffset":1536432,
			"target":34963
		},
		{
			"buffer":0,
			"byteLength":769175,
			"byteOffset":1868880
		}
	],
	"samplers":[
		{
			"magFilter":9729,
			"minFilter":9987
		}
	],
	"buffers":[
		{
			"byteLength":2638056,
			"uri":"data:application/octet-stream;base64,"
		}
	]
}
