{
	"asset":{
		"generator":"Khronos glTF Blender I/O v3.6.27",
		"version":"2.0"
	},
	"scene":0,
	"scenes":[
		{
			"name":"Scene",
			"nodes":[
				0
			]
		}
	],
	"nodes":[
		{
			"mesh":0,
			"name":"bodyPart01_head_F.001"
		}
	],
	"materials":[
		{
			"doubleSided":true,
			"name":"Material.002",
			"pbrMetallicRoughness":{
				"baseColorTexture":{
					"index":0
				},
				"metallicFactor":0,
				"roughnessFactor":0.5
			}
		},
		{
			"doubleSided":true,
			"name":"Material",
			"pbrMetallicRoughness":{
				"baseColorFactor":[
					0.800000011920929,
					0.800000011920929,
					0.800000011920929,
					1
				],
				"metallicFactor":0,
				"roughnessFactor":0.5
			}
		}
	],
	"meshes":[
		{
			"name":"all_low02.014",
			"primitives":[
				{
					"attributes":{
						"COLOR_0":0,
						"POSITION":1,
						"NORMAL":2,
						"TEXCOORD_0":3
					},
					"indices":4,
					"material":0
				},
				{
					"attributes":{
						"COLOR_0":5,
						"POSITION":6,
						"NORMAL":7,
						"TEXCOORD_0":8
					},
					"indices":9,
					"material":1
				}
			]
		}
	],
	"textures":[
		{
			"sampler":0,
			"source":0
		}
	],
	"images":[
		{
			"bufferView":5,
			"mimeType":"image/png",
			"name":"Paint_Base Color"
		}
	],
	"accessors":[
		{
			"bufferView":0,
			"componentType":5126,
			"count":16004,
			"type":"VEC4"
		},
		{
			"bufferView":1,
			"componentType":5126,
			"count":16004,
			"max":[
				0.522441565990448,
				0.6728696227073669,
				1.222926139831543
			],
			"min":[
				-0.5085225701332092,
				-0.6821057796478271,
				-0.2686282992362976
			],
			"type":"VEC3"
		},
		{
			"bufferView":2,
			"componentType":5126,
			"count":16004,
			"type":"VEC3"
		},
		{
			"bufferView":3,
			"componentType":5126,
			"count":16004,
			"type":"VEC2"
		},
		{
			"bufferView":4,
			"componentType":5123,
			"count":78756,
			"type":"SCALAR"
		},
		{
			"bufferView":6,
			"componentType":5126,
			"count":4414,
			"type":"VEC4"
		},
		{
			"bufferView":7,
			"componentType":5126,
			"count":4414,
			"max":[
				0.8334648609161377,
				0.4698297679424286,
				1.478240728378296
			],
			"min":[
				-0.7953100800514221,
				-0.3444002866744995,
				0.8259376883506775
			],
			"type":"VEC3"
		},
		{
			"bufferView":8,
			"componentType":5126,
			"count":4414,
			"type":"VEC3"
		},
		{
			"bufferView":9,
			"componentType":5126,
			"count":4414,
			"type":"VEC2"
		},
		{
			"bufferView":10,
			"componentType":5123,
			"count":6480,
			"type":"SCALAR"
		}
	],
	"bufferViews":[
		{
			"buffer":0,
			"byteLength":256064,
			"byteOffset":0,
			"target":34962
		},
		{
			"buffer":0,
			"byteLength":192048,
			"byteOffset":256064,
			"target":34962
		},
		{
			"buffer":0,
			"byteLength":192048,
			"byteOffset":448112,
			"target":34962
		},
		{
			"buffer":0,
			"byteLength":128032,
			"byteOffset":640160,
			"target":34962
		},
		{
			"buffer":0,
			"byteLength":157512,
			"byteOffset":768192,
			"target":34963
		},
		{
			"buffer":0,
			"byteLength":769175,
			"byteOffset":925704
		},
		{
			"buffer":0,
			"byteLength":70624,
			"byteOffset":1694880,
			"target":34962
		},
		{
			"buffer":0,
			"byteLength":52968,
			"byteOffset":1765504,
			"target":34962
		},
		{
			"buffer":0,
			"byteLength":52968,
			"byteOffset":1818472,
			"target":34962
		},
		{
			"buffer":0,
			"byteLength":35312,
			"byteOffset":1871440,
			"target":34962
		},
		{
			"buffer":0,
			"byteLength":12960,
			"byteOffset":1906752,
			"target":34963
		}
	],
	"samplers":[
		{
			"magFilter":9729,
			"minFilter":9987
		}
	],
	"buffers":[
		{
			"byteLength":1919712,
			"uri":"data:application/octet-stream;base64,"
		}
	]
}
